<?xml version="1.0" encoding="UTF-8" standalone="no"?>
<svg xmlns="http://www.w3.org/2000/svg" width="200" height="200" viewBox="0 0 200 200" fill="none">
  <defs>
    <!-- Blue gradient for orbital paths -->
    <linearGradient id="blueGradient" x1="0%" y1="0%" x2="100%" y2="100%">
      <stop offset="0%" stop-color="#4F8BF9" />
      <stop offset="100%" stop-color="#15BFFF" />
    </linearGradient>
    
    <!-- Glow effect for satellite -->
    <filter id="glow" x="-50%" y="-50%" width="200%" height="200%">
      <feGaussianBlur stdDeviation="2.5" result="blur" />
      <feComposite in="SourceGraphic" in2="blur" operator="over" />
    </filter>
    
    <!-- Data point animation -->
    <linearGradient id="dataPointGradient" x1="0%" y1="0%" x2="100%" y2="100%">
      <stop offset="0%" stop-color="#4F8BF9" stop-opacity="1" />
      <stop offset="100%" stop-color="#15BFFF" stop-opacity="0.7" />
    </linearGradient>
  </defs>
  
  <!-- Main circular orbit -->
  <circle cx="100" cy="100" r="75" stroke="url(#blueGradient)" stroke-width="2" fill="none" opacity="0.5" />
  
  <!-- Secondary elliptical orbit -->
  <ellipse cx="100" cy="100" rx="90" ry="60" stroke="url(#blueGradient)" stroke-width="1.5" fill="none" opacity="0.3" transform="rotate(30 100 100)" />
  
  <!-- Dashed orbit path -->
  <circle cx="100" cy="100" r="55" stroke="url(#blueGradient)" stroke-width="1" stroke-dasharray="4 4" fill="none" opacity="0.7" />
  
  <!-- Central earth/planet -->
  <circle cx="100" cy="100" r="20" fill="#101827" stroke="url(#blueGradient)" stroke-width="1.5" />
  <circle cx="100" cy="100" r="17" fill="#0A0F1A" />
  
  <!-- Satellite -->
  <circle cx="140" cy="85" r="8" fill="url(#blueGradient)" filter="url(#glow)" />
  
  <!-- Data points along orbit -->
  <circle cx="65" cy="60" r="3" fill="url(#dataPointGradient)" opacity="0.9" />
  <circle cx="50" cy="115" r="2" fill="url(#dataPointGradient)" opacity="0.7" />
  <circle cx="110" cy="160" r="2.5" fill="url(#dataPointGradient)" opacity="0.8" />
  <circle cx="170" cy="120" r="2" fill="url(#dataPointGradient)" opacity="0.7" />
  
  <!-- Data lines connecting points -->
  <path d="M65,60 L110,160" stroke="url(#blueGradient)" stroke-width="0.7" opacity="0.4" />
  <path d="M50,115 L140,85" stroke="url(#blueGradient)" stroke-width="0.7" opacity="0.4" />
  <path d="M110,160 L170,120" stroke="url(#blueGradient)" stroke-width="0.7" opacity="0.4" />
  <path d="M140,85 L100,100" stroke="url(#blueGradient)" stroke-width="0.7" opacity="0.6" />
  
  <!-- Satellite trail -->
  <path d="M140,85 Q 120,95 125,115 T 110,160" stroke="url(#blueGradient)" stroke-width="1" stroke-dasharray="2 3" fill="none" opacity="0.6" />
  
  <!-- Small stars in background -->
  <circle cx="30" cy="30" r="1" fill="#FFFFFF" opacity="0.8" />
  <circle cx="170" cy="40" r="1.2" fill="#FFFFFF" opacity="0.7" />
  <circle cx="40" cy="170" r="0.8" fill="#FFFFFF" opacity="0.9" />
  <circle cx="160" cy="155" r="1" fill="#FFFFFF" opacity="0.8" />
  <circle cx="185" cy="90" r="0.8" fill="#FFFFFF" opacity="0.7" />
  <circle cx="25" cy="100" r="1" fill="#FFFFFF" opacity="0.6" />
</svg>