<?xml version="1.0" encoding="UTF-8" standalone="no"?>
<svg xmlns="http://www.w3.org/2000/svg" width="128" height="128" viewBox="0 0 128 128">
  <!-- Background circle with space gradient -->
  <defs>
    <linearGradient id="spaceGradient" x1="0%" y1="0%" x2="100%" y2="100%">
      <stop offset="0%" style="stop-color:#0c1445;stop-opacity:1" />
      <stop offset="100%" style="stop-color:#1e3a8a;stop-opacity:1" />
    </linearGradient>
  </defs>
  
  <!-- Background -->
  <circle cx="64" cy="64" r="60" fill="url(#spaceGradient)" />
  
  <!-- Stars -->
  <circle cx="25" cy="30" r="1" fill="white" opacity="0.8" />
  <circle cx="40" cy="20" r="1.2" fill="white" opacity="0.7" />
  <circle cx="95" cy="25" r="1.5" fill="white" opacity="0.9" />
  <circle cx="105" cy="45" r="1" fill="white" opacity="0.8" />
  <circle cx="85" cy="95" r="1.3" fill="white" opacity="0.7" />
  <circle cx="30" cy="85" r="1" fill="white" opacity="0.9" />
  <circle cx="50" cy="105" r="1.2" fill="white" opacity="0.7" />
  <circle cx="112" cy="78" r="1.5" fill="white" opacity="0.8" />
  <circle cx="15" cy="60" r="1" fill="white" opacity="0.7" />
  
  <!-- Satellite body (main cube) -->
  <rect x="48" y="48" width="32" height="20" rx="2" fill="#e0e0e0" stroke="#aaaaaa" stroke-width="1" />
  
  <!-- Solar panels -->
  <rect x="24" y="54" width="24" height="8" fill="#3366cc" stroke="#1c3e82" stroke-width="1" />
  <rect x="80" y="54" width="24" height="8" fill="#3366cc" stroke="#1c3e82" stroke-width="1" />
  
  <!-- Solar panel struts -->
  <rect x="40" y="57" width="8" height="2" fill="#888888" />
  <rect x="80" y="57" width="8" height="2" fill="#888888" />
  
  <!-- Antenna -->
  <line x1="64" y1="48" x2="64" y2="38" stroke="#d0d0d0" stroke-width="2" />
  <circle cx="64" cy="34" r="4" fill="#d0d0d0" />
  
  <!-- Small orbit line -->
  <circle cx="64" cy="64" r="48" fill="none" stroke="rgba(255,255,255,0.2)" stroke-width="1" stroke-dasharray="2,3" />
  
  <!-- Small Earth in corner -->
  <circle cx="95" cy="95" r="10" fill="#1e88e5" stroke="#1565c0" stroke-width="1" />
  <circle cx="98" cy="92" r="2" fill="rgba(255,255,255,0.5)" />
</svg>